<svg width="19" height="19" viewBox="0 0 19 19" fill="none" xmlns="http://www.w3.org/2000/svg">
<path d="M18 5.19061L13.8469 1.02811C13.5672 0.741352 13.1878 0.573458 12.7875 0.559358C12.5844 0.554679 12.3824 0.591324 12.1938 0.667067C12.0053 0.74281 11.8341 0.856073 11.6906 0.999983L9.21563 3.46561L0.440626 12.25C0.300843 12.3887 0.189933 12.5537 0.114303 12.7356C0.0386743 12.9174 -0.000174814 13.1124 5.91327e-07 13.3094V17.5C5.91327e-07 17.8978 0.158036 18.2793 0.43934 18.5606C0.720645 18.8419 1.10218 19 1.5 19H5.69063C6.08798 18.9983 6.46864 18.84 6.75 18.5594L18 7.30936C18.2783 7.02696 18.4342 6.64643 18.4342 6.24998C18.4342 5.85353 18.2783 5.473 18 5.19061ZM15 8.19061L10.8094 3.99998L12.75 2.05936L16.9406 6.24998L15 8.19061Z" fill="#FEFEFE"/>
</svg>
