<svg width="10" height="16" viewBox="0 0 10 16" fill="none" xmlns="http://www.w3.org/2000/svg">
<path fill-rule="evenodd" clip-rule="evenodd" d="M4.73534 1.27864L0.650414 7.77954C0.601936 7.81932 0.568798 7.87341 0.554325 7.93245L0.428589 8.13256L5.00002 10.7781L9.57145 8.13256L5.2647 1.27865C5.25209 1.24772 5.23422 1.21949 5.21219 1.19509L5.00002 0.857422L4.78784 1.1951C4.76582 1.2195 4.74795 1.24772 4.73534 1.27864ZM4.7143 2.38614L1.62163 7.30793L4.7143 5.83572V2.38614ZM4.7143 6.46859L1.41119 8.04098L4.7143 9.9525V6.46859ZM5.28573 9.9525V6.47518L8.53374 8.07287L5.28573 9.9525ZM5.28573 5.83836V2.38614L8.42543 7.38277L5.28573 5.83836ZM4.9667 11.5524L0.428589 8.9262L5.00002 15.1431L9.57145 8.9262L5.03333 11.5524C5.0224 11.5512 5.01129 11.5505 5.00002 11.5505C4.98875 11.5505 4.97763 11.5512 4.9667 11.5524ZM4.7143 12.0666L2.50834 10.79L4.7143 13.79V12.0666ZM5.28573 13.79L7.49169 10.79L5.28573 12.0666V13.79Z" fill="white"/>
</svg>
