<svg width="28" height="28" viewBox="0 0 28 28" fill="none" xmlns="http://www.w3.org/2000/svg">
<path d="M21.4047 0H6.59527C4.84619 0.000285775 3.16882 0.695235 1.93203 1.93203C0.695235 3.16882 0.000285775 4.84619 0 6.59527L0 21.4047C0.000285775 23.1538 0.695235 24.8312 1.93203 26.068C3.16882 27.3048 4.84619 27.9997 6.59527 28H21.4047C23.1538 27.9997 24.8312 27.3048 26.068 26.068C27.3048 24.8312 27.9997 23.1538 28 21.4047V6.59527C27.9997 4.84619 27.3048 3.16882 26.068 1.93203C24.8312 0.695235 23.1538 0.000285775 21.4047 0V0ZM22.3748 9.34914C22.3749 9.59376 22.3268 9.836 22.2332 10.062C22.1395 10.288 22.0022 10.4932 21.8291 10.6661C21.656 10.8389 21.4504 10.9758 21.2243 11.0691C20.9981 11.1623 20.7558 11.2101 20.5112 11.2095H14.9302V13.0698H20.5112C20.7555 13.0698 20.9973 13.118 21.223 13.2115C21.4486 13.305 21.6536 13.442 21.8263 13.6148C21.9989 13.7875 22.1359 13.9926 22.2292 14.2183C22.3226 14.444 22.3706 14.6859 22.3705 14.9302H7.4888V16.7905H22.3705V18.6465H7.4888V20.5112H22.3705C22.3705 21.0043 22.1746 21.4772 21.8259 21.8259C21.4772 22.1746 21.0043 22.3705 20.5112 22.3705H7.4888C7.24455 22.3706 7.00266 22.3226 6.77696 22.2292C6.55126 22.1359 6.34617 21.9989 6.1734 21.8263C6.00064 21.6536 5.86359 21.4486 5.77009 21.223C5.67658 20.9973 5.62846 20.7555 5.62846 20.5112V14.9302C5.62846 14.4368 5.82445 13.9636 6.17334 13.6147C6.52222 13.2658 6.99541 13.0698 7.4888 13.0698H13.0698V11.2095H7.4888C6.99541 11.2095 6.52222 11.0135 6.17334 10.6646C5.82445 10.3157 5.62846 9.84254 5.62846 9.34914V5.62846H7.4888V9.34914H20.5112V5.62846H22.3705L22.3748 9.34914Z" fill="#FFDD2D"/>
</svg>
