<svg width="140" height="28" viewBox="0 0 140 28" fill="none" xmlns="http://www.w3.org/2000/svg">
<path d="M76.9098 18.5078C76.9098 17.9463 76.7916 17.4702 76.5551 17.0796C76.3186 16.689 75.8946 16.335 75.283 16.0176C74.6715 15.7002 73.803 15.3787 72.6777 15.0532C71.797 14.8009 71.002 14.5161 70.2926 14.1987C69.5913 13.8732 68.9879 13.5029 68.4823 13.0879C67.9767 12.6729 67.5894 12.1968 67.3203 11.6597C67.0512 11.1226 66.9167 10.5081 66.9167 9.81641C66.9167 8.88867 67.1654 8.06266 67.6628 7.33838C68.1684 6.60596 68.8737 6.03223 69.7788 5.61719C70.684 5.19401 71.744 4.98242 72.959 4.98242C74.3045 4.98242 75.4461 5.23877 76.3839 5.75146C77.3216 6.25602 78.0351 6.91927 78.5244 7.74121C79.0137 8.55501 79.2583 9.42578 79.2583 10.3535H76.8731C76.8731 9.6862 76.7304 9.09212 76.445 8.57129C76.1678 8.05046 75.7397 7.64355 75.1607 7.35059C74.5818 7.04948 73.8479 6.89893 72.959 6.89893C72.1273 6.89893 71.4383 7.02507 70.8919 7.27734C70.3537 7.52962 69.9542 7.87142 69.6932 8.30273C69.4323 8.73405 69.3018 9.2264 69.3018 9.77979C69.3018 10.2762 69.4445 10.7197 69.7299 11.1104C70.0153 11.4928 70.4638 11.8387 71.0754 12.1479C71.687 12.4572 72.4779 12.7502 73.4483 13.0269C74.7938 13.4012 75.8987 13.8366 76.7631 14.333C77.6274 14.8294 78.2635 15.4154 78.6712 16.0908C79.0871 16.7663 79.295 17.5638 79.295 18.4834C79.295 19.4437 79.0381 20.2819 78.5244 20.998C78.0107 21.7142 77.289 22.2676 76.3594 22.6582C75.4298 23.0488 74.3371 23.2441 73.0814 23.2441C72.2578 23.2441 71.4464 23.1302 70.6473 22.9023C69.8563 22.6745 69.1346 22.3327 68.4823 21.877C67.8381 21.4212 67.3203 20.8597 66.9289 20.1924C66.5456 19.5169 66.354 18.7357 66.354 17.8486H68.7269C68.7269 18.459 68.8452 18.9839 69.0816 19.4233C69.3181 19.8628 69.6402 20.2249 70.0479 20.5098C70.4557 20.7946 70.9205 21.0062 71.4423 21.1445C71.9642 21.2747 72.5106 21.3398 73.0814 21.3398C73.905 21.3398 74.5981 21.2259 75.1607 20.998C75.7315 20.762 76.1637 20.4325 76.4573 20.0093C76.759 19.5861 76.9098 19.0856 76.9098 18.5078Z" fill="white"/>
<path d="M84.1387 16.0298V14.1255H88.8845C89.806 14.1255 90.548 13.979 91.1107 13.686C91.6815 13.3849 92.0974 12.974 92.3583 12.4531C92.6274 11.9323 92.7619 11.3382 92.7619 10.6709C92.7619 10.0605 92.6274 9.48682 92.3583 8.94971C92.0974 8.4126 91.6815 7.97721 91.1107 7.64355C90.548 7.3099 89.806 7.14307 88.8845 7.14307H84.6769V23H82.304V5.22656H88.8845C90.23 5.22656 91.3675 5.4585 92.2971 5.92236C93.2267 6.38623 93.9321 7.02507 94.4132 7.83887C94.8943 8.65267 95.1349 9.58854 95.1349 10.6465C95.1349 11.7858 94.8943 12.7583 94.4132 13.564C93.9321 14.3696 93.2267 14.984 92.2971 15.4072C91.3675 15.8223 90.23 16.0298 88.8845 16.0298H84.1387Z" fill="white"/>
<path d="M96.725 23H94.2787L101.079 5.22656H102.645L102.608 6.78906L96.725 23ZM101.63 6.78906L101.605 5.22656H103.159L109.972 23H107.538L101.63 6.78906ZM107.244 18.3491H97.2265V16.4326H107.244V18.3491Z" fill="white"/>
<path d="M125.481 17.3604C125.359 18.4753 125.037 19.4803 124.515 20.3755C123.993 21.2625 123.255 21.9624 122.301 22.4751C121.347 22.9878 120.152 23.2441 118.717 23.2441C117.323 23.2441 116.104 22.9064 115.06 22.231C114.016 21.5474 113.205 20.5871 112.626 19.3501C112.047 18.1131 111.758 16.6686 111.758 15.0166V13.2222C111.758 11.562 112.047 10.1175 112.626 8.88867C113.213 7.65169 114.045 6.69141 115.121 6.00781C116.198 5.32422 117.47 4.98242 118.937 4.98242C120.283 4.98242 121.42 5.2347 122.35 5.73926C123.28 6.23568 124.001 6.93148 124.515 7.82666C125.037 8.72184 125.359 9.75537 125.481 10.9272H123.108C122.929 9.68213 122.529 8.7015 121.91 7.98535C121.298 7.26107 120.307 6.89893 118.937 6.89893C117.886 6.89893 117.005 7.16341 116.295 7.69238C115.586 8.21322 115.048 8.94564 114.681 9.88965C114.322 10.8337 114.143 11.9364 114.143 13.1978V15.0166C114.143 16.1803 114.306 17.2424 114.632 18.2026C114.958 19.1548 115.456 19.9157 116.124 20.4854C116.801 21.055 117.665 21.3398 118.717 21.3398C119.72 21.3398 120.515 21.1812 121.102 20.8638C121.698 20.5464 122.146 20.0907 122.448 19.4966C122.758 18.9025 122.978 18.1904 123.108 17.3604H125.481Z" fill="white"/>
<path d="M140 23H130.594V21.0957H140V23ZM131.059 23H128.686V5.22656H131.059V23ZM138.753 14.7725H130.594V12.8682H138.753V14.7725ZM139.878 7.14307H130.594V5.22656H139.878V7.14307Z" fill="white"/>
<path d="M42.5169 13.0138L38.9596 5.24585H34.7798L40.5804 16.4165V22.7531H44.4664V16.4165L50.2539 5.24585H46.0872L42.5169 13.0138Z" fill="white"/>
<path d="M55.6275 15.2266H62.5487V12.2809H55.6275V8.30043H63.7545V5.24585H55.6275H54.3966H51.7896V22.7531H54.3966H55.6275H63.7665V19.7115H55.6275V15.2266Z" fill="white"/>
<path d="M21.6898 0H6.68311C4.91073 0.000285775 3.21102 0.695235 1.95776 1.93203C0.704494 3.16882 0.000289581 4.84619 0 6.59527L0 21.4047C0.000289581 23.1538 0.704494 24.8312 1.95776 26.068C3.21102 27.3048 4.91073 27.9997 6.68311 28H21.6898C23.4622 27.9997 25.1619 27.3048 26.4152 26.068C27.6684 24.8312 28.3726 23.1538 28.3729 21.4047V6.59527C28.3726 4.84619 27.6684 3.16882 26.4152 1.93203C25.1619 0.695235 23.4622 0.000285775 21.6898 0V0ZM22.6728 9.34914C22.6729 9.59376 22.6242 9.836 22.5293 10.062C22.4344 10.288 22.2952 10.4932 22.1198 10.6661C21.9444 10.8389 21.7361 10.9758 21.507 11.0691C21.2778 11.1623 21.0323 11.2101 20.7844 11.2095H15.129V13.0698H20.7844C21.0319 13.0698 21.277 13.118 21.5056 13.2115C21.7343 13.305 21.942 13.442 22.117 13.6148C22.2919 13.7875 22.4307 13.9926 22.5253 14.2183C22.6199 14.444 22.6686 14.6859 22.6684 14.9302H7.58854V16.7905H22.6684V18.6465H7.58854V20.5112H22.6684C22.6684 21.0043 22.4699 21.4772 22.1166 21.8259C21.7633 22.1746 21.2841 22.3705 20.7844 22.3705H7.58854C7.34103 22.3706 7.09592 22.3226 6.86722 22.2292C6.63851 22.1359 6.43069 21.9989 6.25562 21.8263C6.08056 21.6536 5.94168 21.4486 5.84694 21.223C5.75219 20.9973 5.70342 20.7555 5.70342 20.5112V14.9302C5.70342 14.4368 5.90203 13.9636 6.25556 13.6147C6.60909 13.2658 7.08857 13.0698 7.58854 13.0698H13.2439V11.2095H7.58854C7.08857 11.2095 6.60909 11.0135 6.25556 10.6646C5.90203 10.3157 5.70342 9.84254 5.70342 9.34914V5.62846H7.58854V9.34914H20.7844V5.62846H22.6684L22.6728 9.34914Z" fill="#FFDD2D"/>
</svg>
