 <svg width="24" height="24" viewBox="0 0 24 24" fill="none" xmlns="http://www.w3.org/2000/svg">
    <path d="M11.9824 23.9999C9.61267 24.0002 7.29607 23.2976 5.32558 21.9812C3.35509 20.6648 1.81924 18.7935 0.912255 16.6042C0.00527644 14.4148 -0.232096 12.0057 0.230158 9.68138C0.692412 7.35715 1.83353 5.22217 3.5092 3.54647C4.62001 2.42589 5.94121 1.53575 7.39695 0.92715C8.8527 0.318554 10.4143 0.00348381 11.9921 2.87282e-05C13.57 -0.00342635 15.133 0.304802 16.5914 0.90702C18.0497 1.50923 19.3748 2.39358 20.4905 3.50928C21.6062 4.62498 22.4905 5.95007 23.0928 7.40846C23.695 8.86688 24.0032 10.4298 23.9998 12.0077C23.9963 13.5855 23.6812 15.1472 23.0726 16.6028C22.4641 18.0586 21.5739 19.3798 20.4533 20.4906C19.3435 21.6065 18.0234 22.4913 16.5694 23.0937C15.1154 23.6961 13.5563 24.0041 11.9824 23.9999ZM15.1695 8.41808L15.2666 8.79195L17.2309 15.9125H18.8293L16.1478 6.67841L16.0826 6.4274H14.6884L14.6561 6.47772L13.352 8.79375L12.0149 11.1691L11.9824 11.2259L11.9675 11.1691L11.8028 10.5586L11.3462 8.79375L11.2971 8.61818L10.7915 6.67781L10.7262 6.4268H9.33458L9.30225 6.47712L7.99867 8.79375L6.66152 11.1691L5.33278 13.536L3.99565 15.9125H5.59277L6.9299 13.5372L8.26702 11.1709L9.5958 8.79555L9.81562 8.41928L9.91327 8.79555L10.3207 10.3597L10.8268 12.3079L11.0029 12.9722L10.6855 13.5372L9.34657 15.9125H10.9437L11.508 14.9102L12.4887 13.1699L13.6179 11.1709L14.9467 8.79555L15.1659 8.42108L15.1695 8.41808Z" fill="#245EC6" />
  </svg>