<svg width="19" height="22" viewBox="0 0 19 22" fill="none" xmlns="http://www.w3.org/2000/svg">
<path d="M14.5001 14C13.9999 13.9992 13.5046 14.0992 13.0439 14.2941C12.5833 14.489 12.1666 14.7748 11.8188 15.1344L7.49696 12.3594C7.83433 11.4845 7.83433 10.5155 7.49696 9.64062L11.8188 6.86562C12.4268 7.48742 13.232 7.87858 14.0966 7.97214C14.9612 8.0657 15.8315 7.85585 16.5584 7.3785C17.2854 6.90116 17.8238 6.186 18.0816 5.35543C18.3393 4.52486 18.3004 3.63052 17.9715 2.82548C17.6425 2.02044 17.044 1.35476 16.2784 0.942359C15.5127 0.529962 14.6275 0.396495 13.7743 0.564802C12.9211 0.733109 12.1529 1.19272 11.6012 1.86498C11.0496 2.53724 10.7487 3.38035 10.7501 4.25C10.7516 4.7147 10.8374 5.17528 11.0032 5.60937L6.68133 8.38437C6.16101 7.84981 5.49306 7.48258 4.76292 7.32965C4.03277 7.17671 3.2736 7.24503 2.58249 7.52585C1.89137 7.80667 1.29972 8.28724 0.883176 8.9061C0.466636 9.52497 0.244141 10.254 0.244141 11C0.244141 11.746 0.466636 12.475 0.883176 13.0939C1.29972 13.7128 1.89137 14.1933 2.58249 14.4742C3.2736 14.755 4.03277 14.8233 4.76292 14.6704C5.49306 14.5174 6.16101 14.1502 6.68133 13.6156L11.0032 16.3906C10.8374 16.8247 10.7516 17.2853 10.7501 17.75C10.7501 18.4917 10.97 19.2167 11.3821 19.8334C11.7941 20.4501 12.3798 20.9307 13.065 21.2145C13.7502 21.4984 14.5042 21.5726 15.2317 21.4279C15.9591 21.2832 16.6273 20.9261 17.1517 20.4016C17.6762 19.8772 18.0333 19.209 18.178 18.4816C18.3227 17.7542 18.2485 17.0002 17.9646 16.3149C17.6808 15.6297 17.2002 15.044 16.5835 14.632C15.9668 14.2199 15.2418 14 14.5001 14Z" fill="#FEFEFE"/>
</svg>
