<svg width="12" height="12" viewBox="0 0 12 12" fill="none" xmlns="http://www.w3.org/2000/svg">
<path d="M11.9382 9.19419L9.95724 11.2868C9.91419 11.3323 9.86208 11.3685 9.80418 11.3933C9.74628 11.4181 9.68382 11.4308 9.62071 11.4308H0.229976C0.185167 11.4308 0.141335 11.4179 0.103866 11.3937C0.0663955 11.3695 0.0369196 11.335 0.0190593 11.2946C0.00119909 11.2541 -0.0042675 11.2094 0.00333127 11.1659C0.01093 11.1224 0.0312631 11.082 0.0618323 11.0497L2.04429 8.95709C2.08724 8.91175 2.13917 8.87558 2.19688 8.85082C2.2546 8.82605 2.31686 8.81322 2.37981 8.81311H11.77C11.8148 8.81311 11.8587 8.82602 11.8962 8.85021C11.9336 8.87442 11.9631 8.90888 11.981 8.94935C11.9988 8.98984 12.0043 9.03456 11.9967 9.07806C11.9891 9.12156 11.9688 9.16192 11.9382 9.19419ZM9.95724 4.98021C9.91419 4.93476 9.86208 4.89851 9.80418 4.87374C9.74628 4.84898 9.68382 4.83621 9.62071 4.83625H0.229976C0.185167 4.83625 0.141335 4.84914 0.103866 4.87335C0.0663955 4.89755 0.0369196 4.93201 0.0190593 4.97248C0.00119909 5.01296 -0.0042675 5.0577 0.00333127 5.1012C0.01093 5.14468 0.0312631 5.18505 0.0618323 5.21733L2.04429 7.30996C2.08724 7.3553 2.13917 7.39146 2.19688 7.41623C2.2546 7.44099 2.31686 7.45383 2.37981 7.45393H11.77C11.8148 7.45393 11.8587 7.44104 11.8962 7.41683C11.9336 7.39263 11.9631 7.35817 11.981 7.3177C11.9988 7.27722 12.0043 7.23248 11.9967 7.18898C11.9891 7.14549 11.9688 7.10513 11.9382 7.07285L9.95724 4.98021ZM0.229976 3.47707H9.62071C9.68382 3.47709 9.74628 3.46433 9.80418 3.43956C9.86208 3.41479 9.91419 3.37855 9.95724 3.33309L11.9382 1.24045C11.9688 1.20818 11.9891 1.16782 11.9967 1.12432C12.0043 1.08082 11.9988 1.03609 11.981 0.995612C11.9631 0.955134 11.9336 0.920677 11.8962 0.896474C11.8587 0.872271 11.8148 0.859376 11.77 0.859375H2.37981C2.31686 0.859481 2.2546 0.872313 2.19688 0.897078C2.13917 0.921842 2.08724 0.958012 2.04429 1.00335L0.0623433 3.09599C0.0318037 3.12822 0.0114796 3.16855 0.00386358 3.21199C-0.00375242 3.25544 0.00167078 3.30014 0.019468 3.3406C0.0372654 3.38106 0.0666631 3.41551 0.104056 3.43975C0.141449 3.46399 0.185211 3.47696 0.229976 3.47707Z" fill="url(#paint0_linear_33_7299)"/>
<defs>
<linearGradient id="paint0_linear_33_7299" x1="1.01294" y1="11.6828" x2="10.6944" y2="0.602715" gradientUnits="userSpaceOnUse">
<stop offset="0.08" stop-color="#9945FF"/>
<stop offset="0.3" stop-color="#8752F3"/>
<stop offset="0.5" stop-color="#5497D5"/>
<stop offset="0.6" stop-color="#43B4CA"/>
<stop offset="0.72" stop-color="#28E0B9"/>
<stop offset="0.97" stop-color="#19FB9B"/>
</linearGradient>
</defs>
</svg>
