<svg width="29" height="28" viewBox="0 0 29 28" fill="none" xmlns="http://www.w3.org/2000/svg">
<path d="M21.6898 0H6.68311C4.91073 0.000285775 3.21102 0.695235 1.95776 1.93203C0.704494 3.16882 0.000289581 4.84619 0 6.59527L0 21.4047C0.000289581 23.1538 0.704494 24.8312 1.95776 26.068C3.21102 27.3048 4.91073 27.9997 6.68311 28H21.6898C23.4622 27.9997 25.1619 27.3048 26.4152 26.068C27.6684 24.8312 28.3726 23.1538 28.3729 21.4047V6.59527C28.3726 4.84619 27.6684 3.16882 26.4152 1.93203C25.1619 0.695235 23.4622 0.000285775 21.6898 0V0ZM22.6728 9.34914C22.6729 9.59376 22.6242 9.836 22.5293 10.062C22.4344 10.288 22.2952 10.4932 22.1198 10.6661C21.9444 10.8389 21.7361 10.9758 21.507 11.0691C21.2778 11.1623 21.0323 11.2101 20.7844 11.2095H15.129V13.0698H20.7844C21.0319 13.0698 21.277 13.118 21.5056 13.2115C21.7343 13.305 21.942 13.442 22.117 13.6148C22.2919 13.7875 22.4307 13.9926 22.5253 14.2183C22.6199 14.444 22.6686 14.6859 22.6684 14.9302H7.58854V16.7905H22.6684V18.6465H7.58854V20.5112H22.6684C22.6684 21.0043 22.4699 21.4772 22.1166 21.8259C21.7633 22.1746 21.2841 22.3705 20.7844 22.3705H7.58854C7.34103 22.3706 7.09592 22.3226 6.86722 22.2292C6.63851 22.1359 6.43069 21.9989 6.25562 21.8263C6.08056 21.6536 5.94168 21.4486 5.84694 21.223C5.75219 20.9973 5.70342 20.7555 5.70342 20.5112V14.9302C5.70342 14.4368 5.90203 13.9636 6.25556 13.6147C6.60909 13.2658 7.08857 13.0698 7.58854 13.0698H13.2439V11.2095H7.58854C7.08857 11.2095 6.60909 11.0135 6.25556 10.6646C5.90203 10.3157 5.70342 9.84254 5.70342 9.34914V5.62846H7.58854V9.34914H20.7844V5.62846H22.6684L22.6728 9.34914Z" fill="#FFDD2D"/>
</svg>
